{
  "accessors": [
    {
      "bufferView": 2,
      "componentType": 5126,
      "count": 720,
      "max": [
        0.9262128472328186,
        0.9946706891059875,
        0.8809076547622681
      ],
      "min": [
        -0.9262138605117798,
        -0.9946707487106323,
        -0.8809106349945068
      ],
      "type": "VEC3"
    },
    {
      "bufferView": 2,
      "byteOffset": 8640,
      "componentType": 5126,
      "count": 720,
      "max": [
        0.9999999403953552,
        0.9831249117851257,
        0.9512251019477844
      ],
      "min": [
        -1.0,
        -0.9831277132034302,
        -0.9512680768966675
      ],
      "type": "VEC3"
    },
    {
      "bufferView": 1,
      "componentType": 5126,
      "count": 720,
      "max": [
        0.5242241621017456,
        0.5159199237823486
      ],
      "min": [
        0.08848708868026733,
        0.012774080038070679
      ],
      "type": "VEC2"
    },
    {
      "bufferView": 0,
      "componentType": 5125,
      "count": 1080,
      "type": "SCALAR"
    },
    {
      "bufferView": 2,
      "byteOffset": 17280,
      "componentType": 5126,
      "count": 3840,
      "max": [
        0.9903041124343872,
        0.8765465021133423,
        0.9818180203437805
      ],
      "min": [
        -0.9903034567832947,
        -0.876570463180542,
        -0.9818177819252014
      ],
      "type": "VEC3"
    },
    {
      "bufferView": 2,
      "byteOffset": 63360,
      "componentType": 5126,
      "count": 3840,
      "max": [
        0.9998571872711182,
        0.9016959071159363,
        0.9998385906219482
      ],
      "min": [
        -0.9998566508293152,
        -0.901719868183136,
        -0.9998376369476318
      ],
      "type": "VEC3"
    },
    {
      "bufferView": 1,
      "byteOffset": 5760,
      "componentType": 5126,
      "count": 3840,
      "max": [
        0.5247067809104919,
        0.5159199237823486
      ],
      "min": [
        0.0880035012960434,
        0.012774080038070679
      ],
      "type": "VEC2"
    },
    {
      "bufferView": 0,
      "byteOffset": 4320,
      "componentType": 5125,
      "count": 5760,
      "type": "SCALAR"
    },
    {
      "bufferView": 2,
      "byteOffset": 109440,
      "componentType": 5126,
      "count": 2880,
      "max": [
        0.9563790559768677,
        0.9889602065086365,
        0.9325267672538757
      ],
      "min": [
        -0.9564052820205688,
        -0.9889686703681946,
        -0.932510256767273
      ],
      "type": "VEC3"
    },
    {
      "bufferView": 2,
      "byteOffset": 144000,
      "componentType": 5126,
      "count": 2880,
      "max": [
        0.9960839152336121,
        0.996924102306366,
        0.988602340221405
      ],
      "min": [
        -0.9961052536964417,
        -0.9969271421432495,
        -0.9885264039039612
      ],
      "type": "VEC3"
    },
    {
      "bufferView": 1,
      "byteOffset": 36480,
      "componentType": 5126,
      "count": 2880,
      "max": [
        0.5271037817001343,
        0.5159199237823486
      ],
      "min": [
        0.0856536477804184,
        0.012774080038070679
      ],
      "type": "VEC2"
    },
    {
      "bufferView": 0,
      "byteOffset": 27360,
      "componentType": 5125,
      "count": 4320,
      "type": "SCALAR"
    },
    {
      "bufferView": 2,
      "byteOffset": 178560,
      "componentType": 5126,
      "count": 4800,
      "max": [
        0.9827457070350647,
        0.9671286344528198,
        0.970801591873169
      ],
      "min": [
        -0.9827457070350647,
        -0.9671273827552795,
        -0.9708021283149719
      ],
      "type": "VEC3"
    },
    {
      "bufferView": 2,
      "byteOffset": 236160,
      "componentType": 5126,
      "count": 4800,
      "max": [
        0.9989084005355835,
        0.9810932874679565,
        0.9905253648757935
      ],
      "min": [
        -0.9988394379615784,
        -0.9810903072357178,
        -0.9905210137367249
      ],
      "type": "VEC3"
    },
    {
      "bufferView": 1,
      "byteOffset": 59520,
      "componentType": 5126,
      "count": 4800,
      "max": [
        0.5260068774223328,
        0.5159199237823486
      ],
      "min": [
        0.0866793841123581,
        0.012774080038070679
      ],
      "type": "VEC2"
    },
    {
      "bufferView": 0,
      "byteOffset": 44640,
      "componentType": 5125,
      "count": 7200,
      "type": "SCALAR"
    },
    {
      "bufferView": 2,
      "byteOffset": 293760,
      "componentType": 5126,
      "count": 7680,
      "max": [
        0.9911378026008606,
        0.9344508647918701,
        0.9912766814231873
      ],
      "min": [
        -0.9911378622055054,
        -0.9344691038131714,
        -0.9912766814231873
      ],
      "type": "VEC3"
    },
    {
      "bufferView": 2,
      "byteOffset": 385920,
      "componentType": 5126,
      "count": 7680,
      "max": [
        0.9996249079704285,
        0.9479190707206726,
        0.999786913394928
      ],
      "min": [
        -0.999625027179718,
        -0.9479176998138428,
        -0.999786376953125
      ],
      "type": "VEC3"
    },
    {
      "bufferView": 1,
      "byteOffset": 97920,
      "componentType": 5126,
      "count": 7680,
      "max": [
        0.5266993045806885,
        0.5159199237823486
      ],
      "min": [
        0.0860535055398941,
        0.012774080038070679
      ],
      "type": "VEC2"
    },
    {
      "bufferView": 0,
      "byteOffset": 73440,
      "componentType": 5125,
      "count": 11520,
      "type": "SCALAR"
    },
    {
      "bufferView": 3,
      "componentType": 5126,
      "count": 120,
      "max": [
        5.0
      ],
      "min": [
        0.0416666679084301
      ],
      "type": "SCALAR"
    },
    {
      "bufferView": 5,
      "componentType": 5126,
      "count": 120,
      "max": [
        0.9999810457229614,
        0.49999529123306274,
        0.49995723366737366,
        0.999923825263977
      ],
      "min": [
        -0.988210916519165,
        -0.49995723366737366,
        -0.49999529123306274,
        -0.00997975468635559
      ],
      "type": "VEC4"
    },
    {
      "bufferView": 3,
      "byteOffset": 480,
      "componentType": 5126,
      "count": 3,
      "max": [
        5.0
      ],
      "min": [
        0.0416666679084301
      ],
      "type": "SCALAR"
    },
    {
      "bufferView": 4,
      "componentType": 5126,
      "count": 3,
      "max": [
        1.0,
        1.0,
        1.0
      ],
      "min": [
        0.9999999403953552,
        1.0,
        1.0
      ],
      "type": "VEC3"
    },
    {
      "bufferView": 3,
      "byteOffset": 492,
      "componentType": 5126,
      "count": 121,
      "max": [
        5.0
      ],
      "min": [
        0.0
      ],
      "type": "SCALAR"
    },
    {
      "bufferView": 5,
      "byteOffset": 1920,
      "componentType": 5126,
      "count": 121,
      "max": [
        0.9999810457229614,
        0.49999523162841797,
        0.49995720386505127,
        1.0
      ],
      "min": [
        -0.9882107973098755,
        -0.49995720386505127,
        -0.49999523162841797,
        -0.00997975468635559
      ],
      "type": "VEC4"
    }
  ],
  "animations": [
    {
      "channels": [
        {
          "sampler": 0,
          "target": {
            "node": 3,
            "path": "rotation"
          }
        },
        {
          "sampler": 1,
          "target": {
            "node": 3,
            "path": "scale"
          }
        }
      ],
      "name": "Action",
      "samplers": [
        {
          "input": 20,
          "interpolation": "LINEAR",
          "output": 21
        },
        {
          "input": 22,
          "interpolation": "LINEAR",
          "output": 23
        }
      ]
    },
    {
      "channels": [
        {
          "sampler": 0,
          "target": {
            "node": 3,
            "path": "rotation"
          }
        }
      ],
      "name": "Hollow SphereAction",
      "samplers": [
        {
          "input": 24,
          "interpolation": "LINEAR",
          "output": 25
        }
      ]
    }
  ],
  "asset": {
    "extras": {
      "author": "Marco Zakaria (https://sketchfab.com/marcoZakaria)",
      "license": "CC-BY-4.0 (http://creativecommons.org/licenses/by/4.0/)",
      "source": "https://sketchfab.com/3d-models/hollow-colored-sphere-4403a91c08574c05b88ad2a6546456cd",
      "title": "Hollow Colored Sphere"
    },
    "generator": "Sketchfab-12.66.0",
    "version": "2.0"
  },
  "bufferViews": [
    {
      "buffer": 0,
      "byteLength": 119520,
      "name": "floatBufferViews",
      "target": 34963
    },
    {
      "buffer": 0,
      "byteLength": 159360,
      "byteOffset": 119520,
      "byteStride": 8,
      "name": "floatBufferViews",
      "target": 34962
    },
    {
      "buffer": 0,
      "byteLength": 478080,
      "byteOffset": 278880,
      "byteStride": 12,
      "name": "floatBufferViews",
      "target": 34962
    },
    {
      "buffer": 0,
      "byteLength": 976,
      "byteOffset": 756960,
      "name": "floatBufferViews"
    },
    {
      "buffer": 0,
      "byteLength": 36,
      "byteOffset": 757936,
      "byteStride": 12,
      "name": "floatBufferViews"
    },
    {
      "buffer": 0,
      "byteLength": 3856,
      "byteOffset": 757972,
      "byteStride": 16,
      "name": "floatBufferViews"
    }
  ],
  "buffers": [
    {
      "byteLength": 761828,
      "uri": "scene.bin"
    }
  ],
  "extensionsRequired": [
    "KHR_materials_pbrSpecularGlossiness"
  ],
  "extensionsUsed": [
    "KHR_materials_pbrSpecularGlossiness"
  ],
  "materials": [
    {
      "doubleSided": true,
      "emissiveFactor": [
        1.0,
        1.0,
        0.0
      ],
      "extensions": {
        "KHR_materials_pbrSpecularGlossiness": {
          "diffuseFactor": [
            0.8,
            0.63895,
            0.0,
            1.0
          ],
          "glossinessFactor": 0.5,
          "specularFactor": [
            0.0,
            0.0,
            0.0
          ]
        }
      },
      "name": "Emissive_Material"
    },
    {
      "doubleSided": true,
      "emissiveFactor": [
        0.0,
        0.6595380000000001,
        1.0
      ],
      "extensions": {
        "KHR_materials_pbrSpecularGlossiness": {
          "diffuseFactor": [
            0.0007159206973316543,
            0.6850470010528649,
            0.2034526345879577,
            1.0
          ],
          "glossinessFactor": 0.5,
          "specularFactor": [
            0.0,
            0.0,
            0.0
          ]
        }
      },
      "name": "Emissive_Material_2"
    },
    {
      "doubleSided": true,
      "emissiveFactor": [
        0.0,
        0.6954415079836327,
        0.08744458021740512
      ],
      "extensions": {
        "KHR_materials_pbrSpecularGlossiness": {
          "diffuseFactor": [
            0.0,
            0.8741016689,
            0.1108921601,
            1.0
          ],
          "glossinessFactor": 0.5,
          "specularFactor": [
            0.0,
            0.0,
            0.0
          ]
        }
      },
      "name": "Mat1"
    },
    {
      "doubleSided": true,
      "emissiveFactor": [
        1.0,
        0.0,
        0.0
      ],
      "extensions": {
        "KHR_materials_pbrSpecularGlossiness": {
          "diffuseFactor": [
            0.864824582,
            0.0,
            0.0,
            1.0
          ],
          "glossinessFactor": 0.5,
          "specularFactor": [
            0.0,
            0.0,
            0.0
          ]
        }
      },
      "name": "Mat2"
    },
    {
      "doubleSided": true,
      "emissiveFactor": [
        0.0,
        0.1411921523264311,
        1.0
      ],
      "extensions": {
        "KHR_materials_pbrSpecularGlossiness": {
          "diffuseFactor": [
            0.0006849503,
            0.0,
            1.0,
            1.0
          ],
          "glossinessFactor": 0.5,
          "specularFactor": [
            0.0,
            0.0,
            0.0
          ]
        }
      },
      "name": "Mat3"
    }
  ],
  "meshes": [
    {
      "name": "Object_0",
      "primitives": [
        {
          "attributes": {
            "NORMAL": 1,
            "POSITION": 0,
            "TEXCOORD_0": 2
          },
          "indices": 3,
          "material": 0,
          "mode": 4
        }
      ]
    },
    {
      "name": "Object_1",
      "primitives": [
        {
          "attributes": {
            "NORMAL": 5,
            "POSITION": 4,
            "TEXCOORD_0": 6
          },
          "indices": 7,
          "material": 1,
          "mode": 4
        }
      ]
    },
    {
      "name": "Object_2",
      "primitives": [
        {
          "attributes": {
            "NORMAL": 9,
            "POSITION": 8,
            "TEXCOORD_0": 10
          },
          "indices": 11,
          "material": 2,
          "mode": 4
        }
      ]
    },
    {
      "name": "Object_3",
      "primitives": [
        {
          "attributes": {
            "NORMAL": 13,
            "POSITION": 12,
            "TEXCOORD_0": 14
          },
          "indices": 15,
          "material": 3,
          "mode": 4
        }
      ]
    },
    {
      "name": "Object_4",
      "primitives": [
        {
          "attributes": {
            "NORMAL": 17,
            "POSITION": 16,
            "TEXCOORD_0": 18
          },
          "indices": 19,
          "material": 4,
          "mode": 4
        }
      ]
    }
  ],
  "nodes": [
    {
      "children": [
        1
      ],
      "matrix": [
        1.0,
        0.0,
        0.0,
        0.0,
        0.0,
        2.220446049250313e-16,
        -1.0,
        0.0,
        0.0,
        1.0,
        2.220446049250313e-16,
        0.0,
        0.0,
        0.0,
        0.0,
        1.0
      ],
      "name": "Sketchfab_model"
    },
    {
      "children": [
        2
      ],
      "name": "root"
    },
    {
      "children": [
        3
      ],
      "matrix": [
        1.0,
        0.0,
        0.0,
        0.0,
        0.0,
        2.220446049250313e-16,
        1.0,
        0.0,
        0.0,
        -1.0,
        2.220446049250313e-16,
        0.0,
        0.0,
        0.0,
        0.0,
        1.0
      ],
      "name": "GLTF_SceneRootNode"
    },
    {
      "children": [
        4,
        5,
        6,
        7,
        8
      ],
      "name": "Hollow Sphere_0"
    },
    {
      "mesh": 0,
      "name": "Object_4"
    },
    {
      "mesh": 1,
      "name": "Object_5"
    },
    {
      "mesh": 2,
      "name": "Object_6"
    },
    {
      "mesh": 3,
      "name": "Object_7"
    },
    {
      "mesh": 4,
      "name": "Object_8"
    }
  ],
  "scene": 0,
  "scenes": [
    {
      "name": "Sketchfab_Scene",
      "nodes": [
        0
      ]
    }
  ]
}
